<svg width="1496" height="487" viewBox="0 0 1496 487" fill="none" xmlns="http://www.w3.org/2000/svg">
<g clip-path="url(#clip0_3_92)">
<path d="M752.69 350.72L897.97 200.41H781.7L788.65 160.13H958.86L951.91 199.69L806.87 350H932.97L925.78 390.28H745.74L752.69 350.72Z" fill="#7428EA"/>
<path d="M961.09 274.01C973.56 203.29 1032.05 155.34 1097.5 155.34C1136.58 155.34 1159.83 169.72 1173.02 191.54L1178.53 160.13H1226L1185.48 390.28H1138.01L1143.52 358.87C1122.66 380.69 1094.13 395.07 1055.06 395.07C989.61 395.07 948.62 344.73 961.08 274L961.09 274.01ZM1068.5 352.4C1112.85 352.4 1150.73 316.44 1158.4 274.01C1165.83 231.58 1139.7 198.01 1095.59 198.01C1051.48 198.01 1016 231.57 1008.57 274.01C1000.9 316.44 1024.15 352.4 1068.5 352.4Z" fill="#7428EA"/>
<path d="M1210.94 486.17L1268.48 160.13H1315.95L1310.44 191.54C1331.3 169.72 1359.83 155.34 1398.9 155.34C1464.35 155.34 1505.58 205.68 1493.12 276.41C1480.65 347.13 1421.92 395.08 1356.47 395.08C1317.39 395.08 1294.14 380.7 1280.95 358.88L1258.41 486.18H1210.94V486.17ZM1358.37 352.4C1402.72 352.4 1438.2 318.84 1445.63 276.4C1453.06 233.97 1429.81 198.01 1385.46 198.01C1341.11 198.01 1303.23 233.97 1295.8 276.4C1288.37 318.83 1314.26 352.4 1358.37 352.4Z" fill="#7428EA"/>
<path d="M465.08 253.4L385.75 295.86C386.07 296.67 386.39 297.48 386.73 298.29C396.18 321.15 413.41 342.85 437.15 360.39C448.69 369.01 462.49 376.18 477.79 381.34C494.71 387.04 513.45 390.28 532.96 390.28H191.9V350.08C191.9 335.37 193.32 322.63 198.13 310.74C202.66 298.85 205.77 290.93 215.68 279.6C220.49 274.23 225.02 269.41 228.7 265.45C232.38 261.77 237.76 256.68 245.4 250.73C252.76 244.79 258.98 239.69 264.08 235.73C269.17 231.77 276.53 226.11 286.44 218.46C293.23 213.65 297.48 210.26 304.27 204.88C325.5 188.74 340.22 175.44 348.43 164.97C356.64 154.78 360.88 143.46 360.88 130.72C360.88 108.07 345.32 93.35 320.69 93.35C296.06 93.35 272.85 113.73 261.53 141.76L191.7 110.54L178.6 104.68C181.64 94.79 186.01 84.97 191.7 75.43C200.31 60.96 211.93 47.1101 226.43 34.48C249.36 14.51 283.87 1.24005 322.11 0.0500488H535.46C502.5 0.0500488 473.17 8.99005 447.2 26.58C443.03 29.41 439.05 32.3801 435.27 35.5C415.49 51.7701 401.03 71.99 391.89 96.14L467.87 134.41C470.25 129.91 472.76 125.75 475.4 121.95C489.77 101.2 507.97 90.83 530.16 90.83C550.55 90.83 567.31 103.12 567.31 124.35C567.31 133.01 563.68 140.83 556.42 147.26C549.15 153.96 540.77 157.31 531.28 157.31H473.45V229.94H528.48C553.34 229.94 569.82 244.19 569.82 265.69C569.82 284.41 554.18 298.1 529.88 298.1C502.22 298.1 480.44 283.29 465.07 253.4H465.08Z" fill="#A789EF"/>
<path d="M360.89 130.77C360.89 143.51 356.65 154.83 348.44 165.02C340.23 175.49 325.51 188.79 304.28 204.93C297.49 210.31 293.24 213.7 286.45 218.51C276.54 226.16 269.18 231.82 264.09 235.78C258.99 239.74 252.77 244.84 245.41 250.78C237.77 256.73 232.39 261.82 228.71 265.5C225.03 269.46 220.5 274.28 215.69 279.65C205.78 290.98 202.67 298.9 198.14 310.79C193.33 322.68 191.91 335.42 191.91 350.13V390.33H160.19C116.01 390.33 80.19 354.51 80.19 310.33V94.85C53.46 63.23 26.73 31.61 0 0H191.71V0.1H322.12C283.88 1.29 249.37 14.56 226.44 34.53C211.94 47.16 200.32 61.01 191.71 75.48C186.02 85.02 181.65 94.84 178.61 104.73L191.71 110.59L261.54 141.81C272.86 113.78 295.51 93.4 320.7 93.4C345.89 93.4 360.89 108.12 360.89 130.77Z" fill="#D4BDFF"/>
<path d="M682.85 80.05V310.28C682.85 354.46 647.03 390.28 602.85 390.28H532.96C513.45 390.28 494.71 387.04 477.79 381.34C462.49 376.18 448.69 369.01 437.15 360.39C413.41 342.85 396.18 321.15 386.73 298.29C386.39 297.48 386.07 296.67 385.75 295.86L465.08 253.4C480.45 283.29 502.23 298.1 529.89 298.1C554.19 298.1 569.83 284.41 569.83 265.69C569.83 244.19 553.35 229.94 528.49 229.94H473.46V157.31H531.29C540.78 157.31 549.16 153.96 556.43 147.26C563.69 140.83 567.32 133.01 567.32 124.35C567.32 103.12 550.56 90.83 530.17 90.83C507.98 90.83 489.78 101.2 475.41 121.95C472.77 125.75 470.26 129.91 467.88 134.41L391.9 96.14C401.04 71.99 415.5 51.7701 435.28 35.5C439.06 32.3801 443.04 29.41 447.21 26.58C473.17 8.99005 502.5 0.0500488 535.46 0.0500488H602.84C647.02 0.0500488 682.84 35.87 682.84 80.05H682.85Z" fill="#7428EA"/>
</g>
<defs>
<clipPath id="clip0_3_92">
<rect width="1495.33" height="486.17" fill="white"/>
</clipPath>
</defs>
</svg>
